<svg width="41" height="41" viewBox="0 0 41 41" fill="none" xmlns="http://www.w3.org/2000/svg">
<path d="M20.0482 40.6138C10.8662 40.59 2.99432 34.5654 0.646346 25.7674C-1.81563 16.5392 2.94432 6.6449 11.7162 2.75141C22.7241 -2.1333 35.326 3.36993 39.052 14.7352C40.6239 19.5327 40.306 24.2786 38.272 28.9036C38.176 29.1237 38.13 29.314 38.182 29.5618C38.676 31.907 39.156 34.2542 39.634 36.6014C40.108 38.9308 38.38 40.711 36.034 40.2887C33.64 39.8566 31.252 39.4006 28.8641 38.9426C28.4841 38.8693 28.1481 38.8951 27.7861 39.0517C25.3741 40.0885 22.7021 40.6178 20.0482 40.6099V40.6138Z" fill="#BBBBBB"/>
<path d="M22.1179 20.7956C22.1119 21.9355 21.1679 22.8672 20.022 22.8672C18.868 22.8672 17.91 21.9097 17.926 20.7698C17.942 19.6279 18.894 18.7001 20.034 18.71C21.1859 18.7219 22.1239 19.6596 22.1179 20.7936V20.7956Z" fill="#FEFEFE"/>
<path d="M9.02612 20.7696C9.03612 19.6258 9.98611 18.696 11.1281 18.7119C12.2941 18.7277 13.2221 19.6674 13.2081 20.8212C13.1941 21.9551 12.2301 22.8869 11.0901 22.867C9.93411 22.8472 9.01812 21.9155 9.02812 20.7696H9.02612Z" fill="#FEFEFE"/>
<path d="M31.0761 20.8033C31.0681 21.9471 30.1221 22.8789 28.9801 22.867C27.8181 22.8551 26.8841 21.9134 26.8961 20.7617C26.9081 19.6277 27.8661 18.6979 29.0101 18.7118C30.1641 18.7257 31.0861 19.6574 31.0781 20.8033H31.0761Z" fill="#FEFEFE"/>
</svg>
