<svg width="41" height="41" viewBox="0 0 41 41" fill="none" xmlns="http://www.w3.org/2000/svg">
<path d="M20.3863 40.6013C14.7805 40.6013 9.17666 40.6013 3.57078 40.6013C1.90816 40.6013 0.661718 39.7619 0.168551 38.3407C0.0374557 37.9591 0 37.5672 0 37.1691C0 30.3646 0 23.558 0 16.7534C0 14.8805 0.792813 13.4202 2.3389 12.3497C7.30595 8.91545 12.2688 5.47501 17.2338 2.03663C19.296 0.607238 21.5329 0.607238 23.5971 2.03869C28.5226 5.45438 33.4438 8.87832 38.3734 12.2858C40.0069 13.414 40.8101 14.9342 40.806 16.9143C40.7914 23.6178 40.7706 30.3192 40.8205 37.0206C40.8351 38.9554 39.4284 40.6302 37.1582 40.6137C31.569 40.5766 25.9776 40.6013 20.3863 40.6013Z" fill="#BBBBBB"/>
<path d="M19.4 17.1206V35.746C19.4 36.2985 19.8518 36.7463 20.4092 36.7463C20.9666 36.7463 21.4184 36.2985 21.4184 35.746V17.1206C21.4184 16.5681 20.9666 16.1202 20.4092 16.1202C19.8518 16.1202 19.4 16.5681 19.4 17.1206Z" fill="#FEFEFE"/>
</svg>
