<svg width="35" height="41" viewBox="0 0 35 41" fill="none" xmlns="http://www.w3.org/2000/svg">
<path d="M34.1157 20.5682C34.1157 26.0996 34.1218 31.6289 34.1137 37.1603C34.1116 39.1899 32.5274 40.7021 30.5243 40.6098C29.7534 40.5737 29.0918 40.2649 28.4787 39.8076C25.1038 37.2986 21.7229 34.7997 18.3459 32.2928C17.7288 31.8335 17.0713 31.6771 16.3327 31.9558C16.0738 32.0541 15.8552 32.2186 15.6367 32.381C12.2578 34.8839 8.87478 37.3809 5.50191 39.8938C3.40575 41.4562 0.985862 40.2027 0.285794 38.5561C0.0875086 38.0848 0.00050583 37.5995 0.00050583 37.0961C0.00050583 26.0655 -0.00151749 15.0349 0.00252915 4.00428C0.00455247 2.18723 1.2408 0.967852 3.08 0.967852C12.4095 0.963841 21.7411 0.963841 31.0706 0.967852C32.9078 0.967852 34.1137 2.18322 34.1157 4.02233C34.1197 9.53763 34.1157 15.0529 34.1157 20.5682Z" fill="#486BF6"/>
<path d="M28.3209 8.05566H5.79729C5.31232 8.05566 4.91917 8.44536 4.91917 8.92608V9.13065C4.91917 9.61136 5.31232 10.0011 5.79729 10.0011H28.3209C28.8059 10.0011 29.199 9.61136 29.199 9.13065V8.92608C29.199 8.44536 28.8059 8.05566 28.3209 8.05566Z" fill="#FEFEFE"/>
</svg>
