<svg width="96" height="108" viewBox="0 0 96 108" fill="none" xmlns="http://www.w3.org/2000/svg">
<path d="M2.04419 40.2791C2.04419 37.933 3.71976 35.0582 5.76845 33.8852L61.9551 1.72966C64.0038 0.558881 65.6794 1.51638 65.6794 3.8602V52.3386C65.6794 54.6824 64.0038 57.5594 61.9551 58.7324L5.76845 90.888C3.71976 92.061 2.04419 91.1013 2.04419 88.7574V40.2791Z" fill="url(#paint0_linear_74_209)"/>
<path d="M2.04411 88.7574V40.2791C2.04411 37.933 3.71968 35.0582 5.76837 33.8852L61.955 1.72965C62.9668 1.15107 63.887 1.09435 64.5599 1.46419L62.612 0.347865V0.352403C61.9298 -0.0809662 60.9707 -0.0492009 59.9109 0.558877L3.72426 32.7144C1.67557 33.8875 0 36.7645 0 39.1083V87.5866C0 88.8141 0.462385 89.6559 1.19259 90.019L3.05128 91.0808C2.43096 90.6724 2.0464 89.876 2.0464 88.7574H2.04411Z" fill="url(#paint1_linear_74_209)"/>
<g style="mix-blend-mode:screen">
<path d="M34.0057 30.9242L19.3765 56.9014L22.3431 55.202V69.3897L45.6683 56.0415V41.8537L48.6372 40.1566L34.0057 30.9242Z" fill="#FCBA06"/>
</g>
<g style="mix-blend-mode:screen">
<path d="M29.501 52.722C29.501 50.0015 31.4261 46.6957 33.8021 45.3366C36.1781 43.9775 38.1055 45.0779 38.1055 47.7984C38.1055 50.5188 36.1804 53.8247 33.8021 55.1861C31.4261 56.5452 29.501 55.4447 29.501 52.7243V52.722Z" stroke="#F6F6FB" stroke-linecap="round" stroke-linejoin="round"/>
<path d="M40.3397 54.4532C40.2619 54.4532 40.1841 54.4328 40.1108 54.3919L36.6178 52.393C36.398 52.2682 36.3225 51.9891 36.4507 51.7736C36.5766 51.5557 36.8581 51.4831 37.0756 51.6079L40.5686 53.6069C40.7884 53.7317 40.8639 54.0107 40.7357 54.2263C40.651 54.3715 40.4977 54.4532 40.3397 54.4532Z" fill="#F6F6FB"/>
</g>
<g style="mix-blend-mode:screen">
<path d="M44.064 30.9424C43.9861 30.9424 43.9083 30.922 43.8351 30.8811C43.6153 30.7563 43.5398 30.4772 43.668 30.2617L46.559 25.295L56.5117 19.5999C56.7292 19.4751 57.0107 19.5477 57.1366 19.7655C57.2625 19.9834 57.187 20.2602 56.9695 20.385L47.2297 25.9598L44.46 30.7155C44.3753 30.8607 44.2219 30.9424 44.064 30.9424Z" fill="#FFD03E"/>
</g>
<g style="mix-blend-mode:screen">
<path d="M11.2712 46.4665C11.1132 46.4665 10.9599 46.3848 10.8752 46.2396C10.7493 46.0218 10.8248 45.745 11.0423 45.6202L21.1186 39.8548L24.179 41.6064C24.3988 41.7312 24.4743 42.0103 24.3461 42.2258C24.2203 42.4437 23.9387 42.5163 23.7212 42.3915L21.1186 40.903L11.5001 46.4052C11.4291 46.4461 11.349 46.4665 11.2712 46.4665Z" fill="#FFD03E"/>
</g>
<g style="mix-blend-mode:screen">
<path d="M51.0364 54.3398L47.9759 52.5881C47.7562 52.4633 47.6806 52.1843 47.8088 51.9687C47.9347 51.7509 48.2163 51.676 48.4337 51.8031L51.0364 53.2915L56.5117 50.1581C56.7292 50.0333 57.0107 50.1059 57.1366 50.3237C57.2625 50.5415 57.187 50.8183 56.9695 50.9431L51.0364 54.3398Z" fill="#FFD03E"/>
</g>
<g style="mix-blend-mode:screen">
<path d="M11.2712 77.0247C11.1132 77.0247 10.9599 76.943 10.8752 76.7978C10.7493 76.58 10.8248 76.3032 11.0423 76.1784L16.6413 72.9746L19.411 68.2189C19.5369 68.0011 19.8184 67.9285 20.0359 68.0533C20.2556 68.1781 20.3312 68.4571 20.203 68.6727L17.3119 73.6394L11.5001 76.9657C11.4291 77.0065 11.349 77.027 11.2712 77.027V77.0247Z" fill="#FFD03E"/>
</g>
<path d="M78.0443 56.1262L86.7641 61.1612V89.1348L78.0443 84.0998V56.1262Z" fill="#CED2F4"/>
<path d="M95.4839 56.1262L86.7641 61.1612V89.1348L95.4839 84.0998V56.1262Z" fill="#BBBFE2"/>
<path d="M86.7641 51.0911L78.0443 56.1262L86.7641 61.1612L95.4839 56.1262L86.7641 51.0911Z" fill="#F5F5FA"/>
<path d="M62.3867 72.3287L71.1084 77.3619V98.1431L62.3867 93.1081V72.3287Z" fill="#5652CA"/>
<path d="M79.8282 72.3778L71.1084 77.4128V98.1431L79.8282 93.1081V72.3778Z" fill="#423EAD"/>
<path d="M71.1084 67.3937L62.3867 72.4287L71.1084 77.4637L79.8282 72.4287L71.1084 67.3937Z" fill="#6B67E7"/>
<path d="M46.731 89.8891L55.4508 94.9241V107.15L46.731 102.115V89.8891Z" fill="#FCBA06"/>
<path d="M64.1706 89.8891L55.4508 94.9241V107.15L64.1706 102.115V89.8891Z" fill="#E19100"/>
<path d="M55.4508 84.8541L46.731 89.8891L55.4508 94.9241L64.1706 89.8891L55.4508 84.8541Z" fill="#FFD03E"/>
<defs>
<linearGradient id="paint0_linear_74_209" x1="65.8648" y1="56.0619" x2="1.28271" y2="36.0295" gradientUnits="userSpaceOnUse">
<stop stop-color="#34318F"/>
<stop offset="1" stop-color="#807DFB"/>
</linearGradient>
<linearGradient id="paint1_linear_74_209" x1="-6.33834" y1="85.7102" x2="47.471" y2="-8.31504" gradientUnits="userSpaceOnUse">
<stop offset="0.4" stop-color="#4141AA"/>
<stop offset="0.48" stop-color="#34318F"/>
</linearGradient>
</defs>
</svg>
