<svg width="114" height="100" viewBox="0 0 114 100" fill="none" xmlns="http://www.w3.org/2000/svg">
<path d="M67.4118 99.9918H53.8707L100.282 65.5305L113.821 73.2255L67.4118 99.9918Z" fill="url(#paint0_linear_57_161)" style="mix-blend-mode:multiply"/>
<path d="M100.282 65.5305V73.2255L88.1723 80.2103V72.5134L100.282 65.5305Z" fill="#BBC0E6"/>
<path d="M53.8707 92.2949L0 61.2272L46.4112 34.4627L100.282 65.5305L53.8707 92.2949Z" fill="#F6F6FB"/>
<path d="M65.9822 85.3102V93.007L53.8707 99.9918V92.2949L65.9822 85.3102Z" fill="#BBC0E6"/>
<path d="M53.8707 92.2949V99.9918L0 68.924V61.2272L53.8707 92.2949Z" fill="#CED3F8"/>
<path d="M77.8766 99.8652H84.5463L106.41 87.2584L100.067 83.2218L77.8766 99.8652Z" fill="url(#paint1_linear_57_161)" style="mix-blend-mode:multiply"/>
<path d="M88.1723 72.5134L96.7289 77.4501L74.5389 90.2488L65.9822 85.3102L88.1723 72.5134Z" fill="#F6F6FB"/>
<path d="M96.7289 77.4501L96.7309 81.2966L74.5408 94.0954L74.5389 90.2469L96.7289 77.4501Z" fill="#BBC0E6"/>
<path d="M100.067 83.2218V87.0684L77.8766 99.8652V96.0186L100.067 83.2218Z" fill="#BBC0E6"/>
<path d="M96.7309 81.2986L100.067 83.2218L77.8766 96.0186L74.5408 94.0954L96.7309 81.2986Z" fill="#F6F6FB"/>
<path d="M74.5408 94.0954L74.5389 90.2469L65.9822 85.3102V93.007L77.8766 99.8652V96.0186L74.5408 94.0954Z" fill="#CED3F8"/>
<path d="M96.7289 77.4501L88.1723 72.5134L100.282 65.5305L93.5372 61.6398L53.3691 88.4062H60.6172L65.9822 85.3102L71.3453 88.4062H77.7344L96.7289 77.4501Z" fill="url(#paint2_linear_57_161)" style="mix-blend-mode:multiply"/>
<path d="M53.3711 64.3769L53.3691 88.4062L6.74464 61.517V37.4858L53.3711 64.3769Z" fill="#CED3F8"/>
<path d="M53.3691 88.4062L53.3711 64.3769L73.4532 29.6277L93.5372 41.2114V65.2388L53.3691 88.4062Z" fill="#BBC0E6"/>
<path d="M45.6176 64.6073L44.7721 62.995L34.7954 58.3653V70.8492L45.6176 77.0893V64.6073Z" fill="#F6F6FB"/>
<path d="M44.0842 63.3904L33.262 57.1503V69.6342L44.0842 75.8762V63.3904Z" fill="#E1E6FF"/>
<path d="M44.0842 63.3904L44.7721 62.995V75.4789L44.0842 75.8762V63.3904Z" fill="#BBC0E6"/>
<path d="M33.262 57.1503L33.95 56.7549L44.7721 62.995L44.0842 63.3904L33.262 57.1503Z" fill="white"/>
<path d="M42.8813 64.0852L34.4649 59.2329V68.9394L42.8813 73.7955V64.0852Z" fill="#5652CC"/>
<path d="M42.8813 73.7955V72.8953L35.2432 68.4922L34.4649 68.9394L42.8813 73.7955Z" fill="white"/>
<path d="M34.4649 68.9394L35.2432 68.4922V59.682L34.4649 59.2329V68.9394Z" fill="#BBC0E6"/>
<path d="M39.5244 62.1504L38.6731 61.659V70.4692L39.5244 70.9606V62.1504Z" fill="#BBC0E6"/>
<path d="M26.5904 53.6339L25.7449 52.0197L15.7682 47.39V59.8759L26.5904 66.1179V53.6339Z" fill="#F6F6FB"/>
<path d="M25.057 52.4189L14.2348 46.177V58.6609L25.057 64.899V52.4189Z" fill="#E1E6FF"/>
<path d="M25.057 52.4189L25.7449 52.0197V64.5055L25.057 64.899V52.4189Z" fill="#BBC0E6"/>
<path d="M14.2348 46.177L14.9228 45.7816L25.7449 52.0197L25.057 52.4189L14.2348 46.177Z" fill="white"/>
<path d="M23.8541 53.1118L15.4377 48.2595V57.9661L23.8541 62.8222V53.1118Z" fill="#5652CC"/>
<path d="M23.8541 62.8222V61.922L16.216 57.5169L15.4377 57.9661L23.8541 62.8222Z" fill="white"/>
<path d="M15.4377 57.9661L16.216 57.5169V48.7068L15.4377 48.2595V57.9661Z" fill="#BBC0E6"/>
<path d="M20.4953 51.1771L19.6459 50.6857V59.4958L20.4953 59.9872V51.1771Z" fill="#BBC0E6"/>
<path d="M75.8359 28.2534L52.051 69.4039L3.04374 41.1442L26.8287 -0.00817871L75.8359 28.2534Z" fill="#807DFB"/>
<path d="M75.8359 28.2534L52.051 69.4039L53.2423 70.0911L75.8359 31.002L98.4314 44.0291L99.6209 41.9715L75.8359 28.2534Z" fill="#5652CC"/>
<path d="M47.3585 11.8308L38.6616 15.5526V34.9023L64.5737 21.7581L47.3585 11.8308Z" fill="url(#paint3_linear_57_161)" style="mix-blend-mode:multiply"/>
<path d="M38.6616 12.9057L47.3585 7.89025V19.8521L38.6616 34.9023V12.9057Z" fill="#BBC0E6"/>
<path d="M38.6616 34.9023L34.8992 32.7333V10.7367L38.6616 12.9057V34.9023Z" fill="#CED3F8"/>
<path d="M38.6616 12.9057L34.8992 10.7367V6.29521L38.6616 8.46223V12.9057Z" fill="#FCBA06"/>
<path d="M47.3585 7.89025L38.6616 12.9057V8.46223L47.3585 3.44678V7.89025Z" fill="#DC8B00"/>
<path d="M47.3585 3.44678L38.6616 8.46223L34.8992 6.29521L43.5981 1.27783L47.3585 3.44678Z" fill="#FFD03E"/>
<path d="M74.5408 94.0954H81.2105L100.067 83.2218L96.7309 81.2986L74.5408 94.0954Z" fill="url(#paint4_linear_57_161)" style="mix-blend-mode:multiply"/>
<path d="M71.3453 88.4062L72.7518 96.9092L65.9822 93.007V85.3102L71.3453 88.4062Z" fill="#EFEFF3"/>
<path d="M68.5359 56.1177L67.7116 55.6416V80.1335L68.5359 80.6076V56.1177Z" fill="#A1A9D6"/>
<path d="M81.4949 48.6434L80.6725 48.1693L67.7116 55.6416L68.5359 56.1177L81.4949 48.6434Z" fill="#EFEFF4"/>
<path d="M68.5359 56.1177V80.6076L69.9752 79.7784V56.9488L80.0556 51.1368V74.0892L81.4949 73.26V48.6434L68.5359 56.1177Z" fill="#C5CBEA"/>
<path d="M80.0556 74.0892L79.1237 73.5518V51.6742L80.0556 51.1368V74.0892Z" fill="#A1A9D6"/>
<path d="M79.1237 73.5518V51.6742L69.9752 56.9488V78.8283L79.1237 73.5518Z" fill="#CED3F8"/>
<defs>
<linearGradient id="paint0_linear_57_161" x1="0" y1="49.9918" x2="113.821" y2="49.9918" gradientUnits="userSpaceOnUse">
<stop stop-color="#C4CAE9"/>
<stop offset="0.51" stop-color="#D8DDF0"/>
<stop offset="1" stop-color="#E8ECF7"/>
</linearGradient>
<linearGradient id="paint1_linear_57_161" x1="0" y1="49.9976" x2="113.821" y2="49.9976" gradientUnits="userSpaceOnUse">
<stop stop-color="#C4CAE9"/>
<stop offset="0.32" stop-color="#CDD2EB"/>
<stop offset="0.87" stop-color="#E7E8F1"/>
<stop offset="1" stop-color="#EFEFF3"/>
</linearGradient>
<linearGradient id="paint2_linear_57_161" x1="0" y1="49.9954" x2="113.821" y2="49.9954" gradientUnits="userSpaceOnUse">
<stop stop-color="#DAE0F5"/>
<stop offset="0.56" stop-color="#E3E6F4"/>
<stop offset="1" stop-color="#EFEFF3"/>
</linearGradient>
<linearGradient id="paint3_linear_57_161" x1="0" y1="49.9918" x2="113.821" y2="49.9918" gradientUnits="userSpaceOnUse">
<stop stop-color="#C4CAE9"/>
<stop offset="0.25" stop-color="#C8CEEA"/>
<stop offset="0.52" stop-color="#D6DAEF"/>
<stop offset="0.81" stop-color="#ECEEF8"/>
<stop offset="1" stop-color="white"/>
</linearGradient>
<linearGradient id="paint4_linear_57_161" x1="0" y1="49.9993" x2="113.821" y2="49.9993" gradientUnits="userSpaceOnUse">
<stop stop-color="#DAE0F5"/>
<stop offset="0.36" stop-color="#E3E8F7"/>
<stop offset="0.97" stop-color="#FDFDFE"/>
<stop offset="1" stop-color="white"/>
</linearGradient>
</defs>
</svg>
