<svg width="41" height="41" viewBox="0 0 41 41" fill="none" xmlns="http://www.w3.org/2000/svg">
<path d="M20.0482 40.6138C10.8662 40.59 2.99432 34.5654 0.646346 25.7674C-1.81563 16.5392 2.94432 6.6449 11.7162 2.75141C22.7241 -2.1333 35.326 3.36993 39.052 14.7352C40.6239 19.5327 40.306 24.2786 38.272 28.9036C38.176 29.1237 38.13 29.314 38.182 29.5618C38.676 31.907 39.156 34.2542 39.634 36.6014C40.108 38.9308 38.38 40.711 36.034 40.2887C33.64 39.8566 31.252 39.4006 28.8641 38.9426C28.4841 38.8693 28.1481 38.8951 27.7861 39.0517C25.3741 40.0885 22.7021 40.6178 20.0482 40.6099V40.6138Z" fill="#486BF6"/>
<path d="M22.1181 20.7956C22.1121 21.9355 21.1681 22.8672 20.0221 22.8672C18.8681 22.8672 17.9101 21.9097 17.9261 20.7698C17.9421 19.6279 18.8941 18.7001 20.0341 18.71C21.1861 18.7219 22.1241 19.6596 22.1181 20.7936V20.7956Z" fill="#FEFEFE"/>
<path d="M9.02625 20.7699C9.03625 19.626 9.98624 18.6963 11.1282 18.7121C12.2942 18.728 13.2222 19.6676 13.2082 20.8214C13.1942 21.9554 12.2302 22.8871 11.0902 22.8673C9.93424 22.8475 9.01824 21.9157 9.02824 20.7699H9.02625Z" fill="#FEFEFE"/>
<path d="M31.0761 20.8035C31.0681 21.9474 30.1221 22.8791 28.9801 22.8672C27.8181 22.8553 26.8841 21.9137 26.8961 20.7619C26.9081 19.628 27.8661 18.6982 29.0101 18.7121C30.1641 18.7259 31.0861 19.6577 31.0781 20.8035H31.0761Z" fill="#FEFEFE"/>
</svg>
