<svg width="34" height="41" viewBox="0 0 34 41" fill="none" xmlns="http://www.w3.org/2000/svg">
<path d="M6.006 40.6119C5.48603 40.483 4.95806 40.376 4.44808 40.2194C2.03821 39.4839 0.274306 37.3747 0.0763164 34.875C-0.18167 31.61 0.20031 28.4105 1.43824 25.3577C2.17421 23.5459 3.27415 21.9838 5.07405 21.0184C6.21999 20.4038 7.44992 20.1362 8.74186 20.1164C9.22783 20.1085 9.63781 20.3444 10.0438 20.5842C10.9357 21.1115 11.7577 21.7518 12.6996 22.1959C15.7995 23.6549 18.7873 23.3992 21.6752 21.621C22.1491 21.3296 22.6331 21.0461 23.0791 20.7151C23.8671 20.1303 24.735 20.053 25.671 20.1858C28.2448 20.5505 30.0827 21.9303 31.3267 24.1544C32.4546 26.1745 32.9326 28.3768 33.1946 30.6427C33.3246 31.7587 33.3685 32.8787 33.3486 34.0027C33.2826 37.6423 30.9487 40.1639 27.2949 40.5425C27.2409 40.5484 27.1929 40.5524 27.1749 40.6138H6.006V40.6119Z" fill="#486BF6"/>
<path d="M26.061 10.506C26.077 15.779 21.7232 20.0906 16.4095 20.0629C11.0598 20.0351 6.8 15.8088 6.788 10.5199C6.78 5.24484 11.0558 0.99073 16.3975 0.96496C21.7252 0.939189 26.045 5.20321 26.063 10.506H26.061Z" fill="#486BF6"/>
</svg>
