<svg width="45" height="45" viewBox="0 0 45 45" fill="none" xmlns="http://www.w3.org/2000/svg">
<path d="M22.5 44.6051C34.9264 44.6051 45 34.6199 45 22.3026C45 9.9852 34.9264 0 22.5 0C10.0736 0 0 9.9852 0 22.3026C0 34.6199 10.0736 44.6051 22.5 44.6051Z" fill="#486BF6"/>
<path d="M36.4317 34.9148L18.387 17.0284C17.9984 16.6433 17.3685 16.6433 16.98 17.0284L16.8146 17.1923C16.4261 17.5774 16.4261 18.2018 16.8146 18.5869L34.8594 36.4733C35.2479 36.8584 35.8778 36.8584 36.2664 36.4733L36.4317 36.3094C36.8202 35.9243 36.8202 35.2999 36.4317 34.9148Z" fill="#FEFEFE"/>
<path d="M20.7212 32.6484C13.7316 32.628 8.1175 27.0404 8.15189 20.1417C8.18628 13.268 13.8302 7.70545 20.7556 7.71681C27.7314 7.73045 33.3248 13.3112 33.3042 20.244C33.2836 27.1404 27.6786 32.6689 20.7235 32.6484H20.7212Z" fill="white"/>
<path d="M20.7214 30.5441C14.9124 30.526 10.245 25.8837 10.2726 20.1484C10.3001 14.4358 14.9926 9.81172 20.7489 9.82081C26.5487 9.83218 31.1954 14.4722 31.1793 20.2325C31.1633 25.9655 26.5028 30.56 20.7214 30.5441Z" fill="#486BF6"/>
</svg>
