<svg width="86" height="120" viewBox="0 0 86 120" fill="none" xmlns="http://www.w3.org/2000/svg">
<path d="M85.86 29.4568L46.423 6.68713L6.98384 29.4568L46.423 52.2265L85.86 29.4568Z" fill="#F7F7FC"/>
<path d="M74.4773 30.3978L46.423 14.202L18.3687 30.3978L46.423 46.5936L74.4773 30.3978Z" fill="#DCE1F4"/>
<path d="M85.86 97.2221L46.423 119.992V52.2265L85.86 29.4568V97.2221Z" fill="#BDC1E4"/>
<path d="M68.1498 51.3981L64.1353 53.7155V49.4907L68.1498 47.1713V51.3981Z" fill="#DCE1F4"/>
<path d="M68.1498 60.9988L64.1353 63.3182V59.0914L68.1498 56.7741V60.9988Z" fill="#DCE1F4"/>
<path d="M68.1498 70.6016L64.1353 72.9189V68.692L68.1498 66.3747V70.6016Z" fill="#DCE1F4"/>
<path d="M68.1498 80.2022L64.1353 82.5217V78.2948L68.1498 75.9775V80.2022Z" fill="#DCE1F4"/>
<path d="M68.1498 89.805L64.1353 92.1223V87.8955L68.1498 85.5782V89.805Z" fill="#DCE1F4"/>
<path d="M68.1498 99.4056L64.1353 101.725V97.4983L68.1498 95.1809V99.4056Z" fill="#DCE1F4"/>
<path d="M6.98384 97.2221L46.423 119.992V52.2265L6.98384 29.4568V97.2221Z" fill="#D0D4F6"/>
<path d="M24.6962 51.3981L28.7106 53.7155V49.4907L24.6962 47.1713V51.3981Z" fill="#DCE1F4"/>
<path d="M24.6962 60.9988L28.7106 63.3182V59.0914L24.6962 56.7741V60.9988Z" fill="#DCE1F4"/>
<path d="M24.6962 70.6016L28.7106 72.9189V68.692L24.6962 66.3747V70.6016Z" fill="#DCE1F4"/>
<path d="M24.6962 80.2022L28.7106 82.5217V78.2948L24.6962 75.9775V80.2022Z" fill="#DCE1F4"/>
<path d="M24.6962 89.805L28.7106 92.1223V87.8955L24.6962 85.5782V89.805Z" fill="#DCE1F4"/>
<path d="M24.6962 99.4056L28.7106 101.725V97.4983L24.6962 95.1809V99.4056Z" fill="#DCE1F4"/>
<path d="M46.423 16.0329L19.9553 31.3132L16.7395 29.4568L46.423 12.3201V16.0329Z" fill="#BDC1E4"/>
<path d="M46.423 16.0329L72.8906 31.3154L76.1064 29.4568L46.423 12.3201V16.0329Z" fill="#D0D4F6"/>
<path d="M23.0798 33.1165L49.5474 17.8362L46.423 16.0329L19.9553 31.3132L23.0798 33.1165Z" fill="url(#paint0_linear_57_232)" style="mix-blend-mode:multiply"/>
<path d="M33.1711 38.9428L38.0267 41.7465L57.0856 30.7419V25.1365L33.1711 38.9428Z" fill="#A5ABCC"/>
<path d="M57.0856 25.1365V30.7419L61.9412 27.9381L57.0856 25.1365Z" fill="#BBC0E6"/>
<path d="M57.0856 25.1365L58.7169 29.8009L57.0856 30.7419V25.1365Z" fill="url(#paint1_linear_57_232)" style="mix-blend-mode:multiply"/>
<path d="M24.5029 27.628C24.5029 22.2075 28.3092 15.6145 33.0033 12.9042C37.6974 10.1939 41.5058 12.3923 41.5058 17.8128C41.5058 23.2334 37.6974 29.8264 33.0054 32.5367C28.3092 35.2469 24.5029 33.0507 24.5029 27.628Z" fill="#FFD03E"/>
<path d="M33.7297 10.6081C27.7357 14.0682 22.878 22.4836 22.878 29.4037C22.878 36.3238 27.7378 39.1276 33.7297 35.6696C39.7216 32.2096 44.5814 23.7941 44.5814 16.874C44.5814 9.9539 39.7238 7.14805 33.7297 10.6081ZM33.7297 32.9551C29.0356 35.6654 25.2293 33.467 25.2293 28.0465C25.2293 22.6259 29.0335 16.0329 33.7297 13.3226C38.426 10.6124 42.2323 12.8086 42.2323 18.2313C42.2323 23.6539 38.426 30.2448 33.7297 32.9551Z" fill="#FFE950"/>
<path d="M39.3648 12.5389C40.6966 13.5032 41.5058 15.315 41.5058 17.8128C41.5058 23.2334 37.6974 29.8264 33.0054 32.5367C30.8432 33.7856 28.8699 33.9895 27.3704 33.3204C28.9273 34.4483 31.2 34.4165 33.7318 32.9551C38.4281 30.2448 42.2344 23.6518 42.2344 18.2313C42.2344 15.3065 41.1256 13.3226 39.369 12.5389H39.3648Z" fill="url(#paint2_linear_57_232)"/>
<path d="M37.7866 7.77039C35.8113 6.5257 33.0288 6.64252 29.9447 8.42247C23.9528 11.8825 19.093 20.298 19.093 27.2181C19.093 30.727 20.344 33.176 22.3576 34.289L25.8156 36.275C23.9953 35.0855 22.8801 32.7172 22.8801 29.4058C22.8801 22.4857 27.7399 14.0703 33.7318 10.6102C36.663 8.91737 39.3223 8.72833 41.2764 9.78185L37.7888 7.76826L37.7866 7.77039Z" fill="url(#paint3_linear_57_232)"/>
<path d="M33.7297 22.3477C33.2985 22.5962 32.8929 22.6365 32.587 22.4624C32.2833 22.2882 32.1133 21.9186 32.1133 21.4216C32.1133 20.3978 32.8398 19.1446 33.7276 18.6306C34.6197 18.1166 35.344 18.5329 35.344 19.5567L36.8096 18.7092C36.8096 17.0461 35.807 16.2304 34.4604 16.6298V15.3001L32.9948 16.1455V17.4751C31.6503 18.6306 30.6477 20.6038 30.6477 22.2691C30.6477 23.2164 30.9663 23.9195 31.5505 24.2529C32.1324 24.5864 32.9056 24.5078 33.7276 24.032C34.6197 23.518 35.344 23.9322 35.344 24.9581C35.344 25.984 34.6197 27.2351 33.7297 27.7491C32.8398 28.2631 32.1133 27.8489 32.1133 26.823L30.6499 27.6684C30.6499 29.3336 31.6524 30.1493 32.9969 29.7521V30.9798L34.4646 30.1344V28.9067C35.8113 27.7512 36.8138 25.778 36.8138 24.1127C36.8138 22.1586 35.4311 21.3685 33.7318 22.3498L33.7297 22.3477Z" fill="#FFE950"/>
<path d="M34.4498 18.4118C34.5581 18.5987 34.6197 18.8409 34.6197 19.1382L35.344 19.5567C35.344 18.8303 34.9787 18.4118 34.4476 18.4118H34.4498Z" fill="#E19100"/>
<path d="M35.3206 21.8039C34.7556 21.3897 33.9273 21.3961 33.0054 21.9271C32.7505 22.0737 32.5084 22.1395 32.2896 22.1395C32.3661 22.2733 32.4617 22.388 32.5891 22.4602C32.895 22.6344 33.3007 22.594 33.7318 22.3455C34.556 21.8698 35.3036 21.8145 35.8559 22.1013L35.3249 21.8018L35.3206 21.8039Z" fill="#FCBA06"/>
<path d="M34.4519 23.8132C34.5581 24.0002 34.6197 24.2423 34.6197 24.5375C34.6197 25.5635 33.8954 26.8145 33.0054 27.3285C32.7463 27.4772 32.4999 27.5473 32.2854 27.5473C32.5509 28.0082 33.0968 28.1144 33.7318 27.747C34.6218 27.233 35.3482 25.9798 35.3461 24.956C35.3461 24.2296 34.9808 23.8132 34.4519 23.8132Z" fill="#FCBA06"/>
<path d="M32.2726 29.8476V30.5592L32.9991 30.9776V29.7499C32.7442 29.8264 32.4999 29.8561 32.2726 29.8476Z" fill="#E19100"/>
<path d="M34.4625 16.1136V16.6276C34.968 16.4789 35.4226 16.5002 35.7964 16.6722L35.2612 16.36C35.0318 16.2092 34.762 16.1264 34.4625 16.1136Z" fill="#FCBA06"/>
<path d="M33.7382 14.8795L32.2726 15.7249L32.9969 16.1433L34.4646 15.298L33.7382 14.8795Z" fill="#FCBA06"/>
<path d="M29.9234 21.8485C29.9234 22.7958 30.2442 23.4989 30.8262 23.8324L31.4846 24.2062C30.9472 23.8579 30.6477 23.176 30.6499 22.2669C30.6499 20.6038 31.6503 18.6285 32.9969 17.473L32.2726 17.0546C30.9281 18.21 29.9256 20.1854 29.9256 21.8485H29.9234Z" fill="url(#paint4_linear_57_232)"/>
<path d="M32.2726 15.7249V17.0567L32.9969 17.4751V16.1433L32.2726 15.7249Z" fill="#E19100"/>
<path d="M30.6499 27.6684L29.9234 27.2499C29.9234 28.142 30.2123 28.7877 30.6881 29.1361H30.686L30.6987 29.1446C30.7858 29.2062 30.8771 29.2593 30.9748 29.3018L31.4081 29.5503C30.9387 29.1998 30.652 28.5562 30.652 27.6705L30.6499 27.6684Z" fill="#E19100"/>
<path d="M32.1155 26.8209L31.389 26.4025L29.9256 27.2499L30.6499 27.6684L32.1155 26.8209Z" fill="#FCBA06"/>
<path d="M35.7667 63.3076H15.2315V67.082H35.7667V63.3076Z" fill="url(#paint5_linear_57_232)" style="mix-blend-mode:multiply"/>
<path d="M20.0254 60.5421H2.38742V63.743H20.0254V60.5421Z" fill="url(#paint6_linear_57_232)" style="mix-blend-mode:multiply"/>
<path d="M0 62.5876C0 59.6224 1.87977 59.5353 1.87977 59.5353C1.87977 59.5353 3.33262 60.5803 4.58792 60.4189C6.21918 59.6373 8.47916 59.8348 7.19624 62.2052C7.18562 62.235 7.17075 62.2626 7.15376 62.2923C7.07517 62.4198 6.93923 62.5387 6.73745 62.6577L5.48002 63.2205L2.63168 63.6644C2.00509 64.0213 0.0169923 63.195 0.00424808 62.5854L0 62.5876Z" fill="url(#paint7_linear_57_232)"/>
<path d="M0.0106202 62.3221C0.0446048 62.9317 1.42311 63.4138 2.62743 63.3862C2.62743 63.3862 5.07433 63.3543 5.49489 63.108C5.91545 62.8616 6.7332 62.3837 6.7332 62.3837C6.86914 62.3051 7.10278 62.1479 7.31094 61.961C7.27271 62.0417 7.24085 62.1203 7.19199 62.2074C7.18137 62.2371 7.1665 62.2647 7.14951 62.2944C7.07092 62.4219 6.93498 62.5408 6.7332 62.6598C6.7332 62.6598 5.88783 63.1674 5.49489 63.3862C5.10194 63.605 2.62743 63.7537 2.62743 63.7537C1.7141 63.8344 0.261257 63.2991 0.0254885 62.7065C0.0148683 62.6619 0.00637211 62.6194 0.00637211 62.5854C0 62.4941 0.00637211 62.4113 0.0106202 62.3221Z" fill="#121047"/>
<path d="M0.764654 59.1466C1.24893 59.1466 2.95241 59.5799 2.95241 59.5799C2.95241 59.5799 2.96303 59.8157 3.10534 60.0217C3.12234 60.0408 3.1372 60.06 3.15207 60.0791C3.48767 60.3127 3.82964 60.6823 3.03313 61.1814C2.37892 61.5914 1.85004 61.3301 1.59728 61.0795C1.49532 60.8883 1.34452 60.6738 1.13424 60.5527C0.917584 60.4295 0.785894 60.3701 0.690312 60.3658C0.690312 60.3531 0.686064 60.3255 0.686064 60.3255C0.686064 60.3255 0.56287 59.1466 0.764654 59.1466Z" fill="white"/>
<path d="M2.4915 29.1849C4.34791 29.2189 8.98893 29.3018 10.8432 29.3336C10.1529 34.9135 8.76166 39.9814 7.83345 45.3871C6.83728 50.6377 3.95708 55.3616 2.9779 59.7307C2.61894 60.5442 0.977057 60.2363 0.645708 59.4546C0.386575 55.4296 1.41461 49.8688 2.60832 45.2236C2.40866 40.2172 2.37467 34.2402 2.4915 29.1849Z" fill="#131147"/>
<path d="M13.0671 65.9181C13.0671 62.9529 14.9447 62.8679 14.9447 62.8679C14.9447 62.8679 15.9621 62.8679 17.6146 62.1819C19.2438 61.5043 21.5441 61.7656 20.2591 64.136C20.2463 64.1657 20.2315 64.1933 20.2145 64.2252C20.1359 64.3505 20.0021 64.4716 19.796 64.5884L15.6924 66.9971C15.0658 67.3539 13.0798 66.5298 13.065 65.9181H13.0671Z" fill="url(#paint8_linear_57_232)"/>
<path d="M13.0756 65.6525C13.1117 66.26 15.0722 67.0714 15.6924 66.7167L19.796 64.3123C19.932 64.2316 20.1656 64.0765 20.3759 63.8896C20.3377 63.9724 20.3058 64.0489 20.2591 64.1381C20.2463 64.1678 20.2315 64.1955 20.2145 64.2273C20.1359 64.3526 20.0021 64.4737 19.796 64.5905L15.6924 66.9992C15.1062 67.3348 13.3241 66.6296 13.0904 66.0391C13.0798 65.9945 13.0735 65.952 13.0735 65.9181C13.0671 65.8267 13.0735 65.7439 13.0756 65.6547V65.6525Z" fill="#121047"/>
<path d="M13.8296 62.4771C14.3118 62.4771 16.0174 62.9104 16.0174 62.9104C16.0174 62.9104 16.0301 63.1462 16.1682 63.3522C16.1852 63.3713 16.2 63.3905 16.2149 63.4096C16.5526 63.6432 16.8946 64.0128 16.096 64.5119C15.4439 64.9219 14.9129 64.6628 14.6601 64.4121C14.5582 64.2209 14.4052 64.0064 14.1971 63.8853C13.9804 63.76 13.8487 63.7048 13.7531 63.6984C13.7531 63.6857 13.7489 63.6581 13.7489 63.6581C13.7489 63.6581 13.6257 62.475 13.8296 62.475V62.4771Z" fill="white"/>
<path d="M8.38145 42.4538C7.87381 40.0558 2.02208 39.7584 2.40441 30.3256C4.2417 30.0558 13.5068 34.4016 15.3419 34.1318C16.5845 39.7478 16.9774 43.8344 16.9435 49.3144C16.8181 54.6585 16.3147 58.4839 16.0599 62.955C15.839 63.8174 14.1695 63.7813 13.7128 63.0634C12.7995 59.1339 11.7034 54.3442 12.1219 49.5672C11.576 46.9207 8.97618 45.2618 8.38145 42.4517V42.4538Z" fill="url(#paint9_linear_57_232)"/>
<path d="M6.34238 35.6718C10.3207 37.9062 14.4838 37.9084 15.9027 35.1641C15.3717 30.0537 14.8746 25.8948 15.8984 20.9968C15.5968 18.2929 15.3823 17.8851 15.7306 16.3069C15.6074 15.778 13.9804 14.648 12.7952 13.5648C11.5144 12.3965 10.6499 11.2835 9.98935 11.1497C4.54969 10.0389 1.90739 19.7308 2.36193 30.0664C2.78249 32.8149 4.38401 34.5694 6.3445 35.6675L6.34238 35.6718Z" fill="url(#paint10_linear_57_232)"/>
<path d="M6.97109 11.77C8.14993 10.9161 8.05648 9.15314 7.95665 7.98279C7.77185 7.36257 7.68902 6.67651 7.73575 5.96071C7.90992 3.38213 9.70473 1.26446 11.7056 1.54058C15.7434 2.09071 14.8768 4.17864 14.7026 6.75722C14.5412 9.14464 13.3475 10.7164 11.5165 10.8694C11.491 11.2623 11.6503 12.456 12.1452 12.9509C10.8177 13.7453 8.87848 13.3715 8.1117 13.0253C7.29607 12.6557 6.41672 12.3392 6.96897 11.7678L6.97109 11.77Z" fill="#FCD1A9"/>
<path d="M13.3198 0.278906C13.2243 -0.0439479 12.6083 -0.254228 10.5097 0.552907C10.497 0.559279 9.99997 0.752566 9.96811 0.765311C6.08537 2.44755 7.02419 6.9229 7.60406 8.11236C7.81009 8.53504 7.9524 8.87276 7.90992 9.5206C9.43498 9.45687 9.91926 10.3171 10.8963 9.46112C11.5972 8.8494 12.6465 8.12935 12.8228 7.82986C12.9991 7.52825 12.9651 7.33284 12.9651 7.08857C12.9694 4.94329 13.9592 6.25383 13.9273 6.7466C14.333 6.54907 14.3075 5.68671 14.2799 4.72664C17.5743 2.26913 15.8071 0.572023 13.3198 0.278906Z" fill="#20196F"/>
<path d="M26.8776 25.4636C27.2854 25.47 27.5063 24.4717 28.1626 24.34C28.8189 24.2083 30.2059 23.8855 30.2059 24.2933C30.2059 24.6353 29.0037 24.6671 29.18 24.8307C29.6877 25.298 30.7752 24.7138 31.0131 24.2614C31.2552 23.8069 31.6418 23.7432 31.6375 24.185C31.6312 24.6268 31.525 26.6149 29.9702 27.1756C28.4175 27.7363 26.5505 27.6131 26.5505 27.6131L26.8755 25.4615L26.8776 25.4636Z" fill="#FCD1A9"/>
<path d="M27.0433 27.7151C27.0433 27.7151 28.717 26.3982 26.9817 25.2831C23.8827 24.9985 21.6036 24.5397 20.3143 23.6603C19.316 22.3859 17.3746 19.066 15.7285 16.3111C14.1737 14.2891 10.8029 17.354 12.0178 20.2151C13.0522 22.6514 15.8666 25.6484 17.9609 26.8655C19.9256 28.0082 21.9711 27.7172 27.0433 27.7172V27.7151Z" fill="url(#paint11_linear_57_232)"/>
<defs>
<linearGradient id="paint0_linear_57_232" x1="534.171" y1="-626.654" x2="437.286" y2="-603.549" gradientUnits="userSpaceOnUse">
<stop stop-color="#F6F6FB"/>
<stop offset="1" stop-color="#EFEFF3"/>
</linearGradient>
<linearGradient id="paint1_linear_57_232" x1="0" y1="59.9691" x2="85.86" y2="59.9691" gradientUnits="userSpaceOnUse">
<stop stop-color="#F6F6FB"/>
<stop offset="0.73" stop-color="#FBFBFD"/>
<stop offset="1" stop-color="white"/>
</linearGradient>
<linearGradient id="paint2_linear_57_232" x1="18.3302" y1="125.913" x2="83.8951" y2="7.96664" gradientUnits="userSpaceOnUse">
<stop stop-color="#FCBA06"/>
<stop offset="0.1" stop-color="#F7B304"/>
<stop offset="0.53" stop-color="#E79A01"/>
<stop offset="0.8" stop-color="#E19100"/>
</linearGradient>
<linearGradient id="paint3_linear_57_232" x1="4.53799" y1="106.931" x2="69.003" y2="1.31031" gradientUnits="userSpaceOnUse">
<stop stop-color="#E19100"/>
<stop offset="0.57" stop-color="#EFA603"/>
<stop offset="1" stop-color="#FCBA06"/>
</linearGradient>
<linearGradient id="paint4_linear_57_232" x1="4.15356" y1="106.413" x2="43.6642" y2="-7.58976" gradientUnits="userSpaceOnUse">
<stop stop-color="#E37D22"/>
<stop offset="0.02" stop-color="#E19100"/>
<stop offset="1" stop-color="#FCBA06"/>
</linearGradient>
<linearGradient id="paint5_linear_57_232" x1="0" y1="59.958" x2="85.86" y2="59.958" gradientUnits="userSpaceOnUse">
<stop stop-color="#C4CAE8"/>
<stop offset="0.09" stop-color="#CDD2EB"/>
<stop offset="0.41" stop-color="#E8EAF6"/>
<stop offset="0.69" stop-color="#F9F9FC"/>
<stop offset="0.9" stop-color="white"/>
</linearGradient>
<linearGradient id="paint6_linear_57_232" x1="0" y1="60.0316" x2="85.8497" y2="60.0316" gradientUnits="userSpaceOnUse">
<stop stop-color="#C4CAE8"/>
<stop offset="0.09" stop-color="#CDD2EB"/>
<stop offset="0.41" stop-color="#E8EAF6"/>
<stop offset="0.69" stop-color="#F9F9FC"/>
<stop offset="0.9" stop-color="white"/>
</linearGradient>
<linearGradient id="paint7_linear_57_232" x1="85.8578" y1="60.0331" x2="0" y2="60.0331" gradientUnits="userSpaceOnUse">
<stop stop-color="#423EAF"/>
<stop offset="0.3" stop-color="#39359F"/>
<stop offset="0.89" stop-color="#231D77"/>
<stop offset="1" stop-color="#1F196F"/>
</linearGradient>
<linearGradient id="paint8_linear_57_232" x1="85.8713" y1="59.9723" x2="0.0240903" y2="59.9723" gradientUnits="userSpaceOnUse">
<stop stop-color="#423EAF"/>
<stop offset="0.3" stop-color="#39359F"/>
<stop offset="0.89" stop-color="#231D77"/>
<stop offset="1" stop-color="#1F196F"/>
</linearGradient>
<linearGradient id="paint9_linear_57_232" x1="85.8607" y1="59.9881" x2="0.00555746" y2="59.9881" gradientUnits="userSpaceOnUse">
<stop stop-color="#423EAF"/>
<stop offset="0.3" stop-color="#353097"/>
<stop offset="0.75" stop-color="#251F7A"/>
<stop offset="1" stop-color="#1F196F"/>
</linearGradient>
<linearGradient id="paint10_linear_57_232" x1="85.86" y1="59.993" x2="-0.0051845" y2="59.993" gradientUnits="userSpaceOnUse">
<stop offset="0.03" stop-color="#5652CC"/>
<stop offset="1" stop-color="#807DFB"/>
</linearGradient>
<linearGradient id="paint11_linear_57_232" x1="27.7718" y1="21.702" x2="11.7608" y2="21.702" gradientUnits="userSpaceOnUse">
<stop stop-color="#5652CC"/>
<stop offset="0.37" stop-color="#6C68E4"/>
<stop offset="0.73" stop-color="#7A77F5"/>
<stop offset="1" stop-color="#807DFB"/>
</linearGradient>
</defs>
</svg>
